<svg width="101" height="101" viewBox="0 0 101 101" fill="none" xmlns="http://www.w3.org/2000/svg">
<mask id="mask0_32_247" style="mask-type:luminance" maskUnits="userSpaceOnUse" x="0" y="0" width="101" height="101">
<path d="M100.375 0.625H0.625V100.375H100.375V0.625Z" fill="white"/>
</mask>
<g mask="url(#mask0_32_247)">
<path d="M52.5781 0.625C26.181 0.625 4.78125 22.0245 4.78125 48.4219C4.78125 74.819 26.181 96.2188 52.5781 96.2188C78.9753 96.2188 100.375 74.819 100.375 48.4219C100.375 22.0245 78.9753 0.625 52.5781 0.625ZM54.3483 85.5077V74.9757C54.3483 73.9982 53.5557 73.2056 52.5781 73.2056C51.6006 73.2056 50.808 73.9982 50.808 74.9757V85.5077C31.695 84.6054 16.3946 69.305 15.4922 50.192H26.0243C27.0018 50.192 27.7944 49.3994 27.7944 48.4219C27.7944 47.4443 27.0018 46.6517 26.0243 46.6517H15.4922C16.3944 27.5388 31.695 12.2383 50.808 11.3359V21.868C50.808 22.8457 51.6006 23.6383 52.5781 23.6383C53.5557 23.6383 54.3483 22.8457 54.3483 21.868V11.3359C73.4612 12.2381 88.762 27.5388 89.6639 46.6517H79.132C78.1544 46.6517 77.3618 47.4443 77.3618 48.4219C77.3618 49.3994 78.1544 50.192 79.132 50.192H89.6639C88.7616 69.305 73.4612 84.6058 54.3483 85.5077ZM73.3024 66.6433C73.994 67.3345 73.994 68.455 73.3024 69.1466C72.957 69.492 72.504 69.6649 72.051 69.6649C71.598 69.6649 71.1449 69.492 70.7995 69.1462L57.4837 55.8308L55.5129 57.8229C53.8936 59.46 51.2631 59.46 49.6438 57.8229L42.4523 50.5528C39.8301 47.9019 39.3787 43.6426 41.6526 40.6825C44.3999 37.1065 49.5145 36.8671 52.5785 39.9643C54.6446 37.8754 57.6325 37.3417 60.2094 38.2877L67.2593 31.2379C67.9504 30.5467 69.071 30.5467 69.7626 31.2379C70.4537 31.9295 70.4537 33.05 69.7626 33.7412L63.1703 40.3334C63.278 40.456 63.4031 40.5508 63.5045 40.6829C65.778 43.6426 65.3266 47.9023 62.7048 50.5532L59.9738 53.3138L73.3024 66.6433Z" fill="#25355A"/>
</g>
</svg>
