<svg width="162" height="25" viewBox="0 0 162 25" fill="none" xmlns="http://www.w3.org/2000/svg">
<path d="M4.944 4.288V12C4.944 12.1493 5.02933 12.2453 5.2 12.288C6.01067 12.3947 6.8 12.448 7.568 12.448C9.296 12.448 10.608 12.0747 11.504 11.328C12.4213 10.56 12.88 9.472 12.88 8.064C12.88 5.22667 11.1093 3.808 7.568 3.808C6.8 3.808 6.01067 3.86133 5.2 3.968C5.02933 4.01067 4.944 4.11733 4.944 4.288ZM2.32 24C1.82933 24 1.40267 23.8187 1.04 23.456C0.698667 23.0933 0.528 22.6667 0.528 22.176V2.624C0.528 2.112 0.698667 1.65333 1.04 1.248C1.38133 0.842666 1.808 0.618666 2.32 0.575998C4.13333 0.405333 5.88267 0.32 7.568 0.32C10.768 0.32 13.168 0.96 14.768 2.24C16.368 3.49867 17.168 5.33333 17.168 7.744C17.168 10.4107 16.3893 12.4267 14.832 13.792C13.296 15.1573 11.0133 15.84 7.984 15.84C7.28 15.84 6.352 15.7973 5.2 15.712C5.02933 15.712 4.944 15.7973 4.944 15.968V22.176C4.944 22.6667 4.76267 23.0933 4.4 23.456C4.03733 23.8187 3.61067 24 3.12 24H2.32ZM27.5168 16C24.4661 16 22.9408 16.9387 22.9408 18.816C22.9408 19.4987 23.1328 20.0533 23.5168 20.48C23.9221 20.9067 24.4341 21.12 25.0528 21.12C26.2688 21.12 27.2501 20.7467 27.9968 20C28.7434 19.232 29.1168 18.1867 29.1168 16.864V16.288C29.1168 16.096 29.0208 16 28.8288 16H27.5168ZM23.9008 24.32C22.4501 24.32 21.2448 23.8507 20.2848 22.912C19.3461 21.952 18.8768 20.7147 18.8768 19.2C18.8768 17.344 19.5808 15.904 20.9888 14.88C22.4181 13.856 24.5941 13.344 27.5168 13.344H28.8288C29.0208 13.344 29.1168 13.248 29.1168 13.056V12.8C29.1168 11.8187 28.8821 11.136 28.4128 10.752C27.9434 10.3467 27.1114 10.144 25.9167 10.144C24.6794 10.144 23.1648 10.368 21.3728 10.816C20.9888 10.9227 20.6368 10.8587 20.3168 10.624C19.9968 10.368 19.8368 10.0373 19.8368 9.632C19.8368 9.14133 19.9861 8.704 20.2848 8.32C20.5834 7.91467 20.9674 7.66933 21.4368 7.584C23.0581 7.22133 24.5834 7.04 26.0128 7.04C28.7434 7.04 30.6528 7.53067 31.7408 8.512C32.8288 9.49333 33.3728 11.2107 33.3728 13.664V22.176C33.3728 22.6667 33.1914 23.0933 32.8288 23.456C32.4874 23.8187 32.0714 24 31.5808 24H31.2288C30.7168 24 30.2794 23.8293 29.9168 23.488C29.5541 23.1253 29.3621 22.688 29.3408 22.176V21.728C29.3408 21.7067 29.3301 21.696 29.3088 21.696C29.2661 21.696 29.2448 21.7067 29.2448 21.728C27.9434 23.456 26.1621 24.32 23.9008 24.32ZM43.0298 17.28C40.7898 16.7893 39.1898 16.1173 38.2298 15.264C37.2911 14.4107 36.8218 13.3013 36.8218 11.936C36.8218 10.4 37.3871 9.20533 38.5178 8.352C39.6698 7.47733 41.3658 7.04 43.6058 7.04C45.0138 7.04 46.4111 7.168 47.7978 7.424C48.2671 7.50933 48.6404 7.744 48.9178 8.128C49.2164 8.49067 49.3658 8.91733 49.3658 9.408C49.3658 9.81333 49.2058 10.144 48.8858 10.4C48.5658 10.6347 48.2031 10.6987 47.7978 10.592C46.6031 10.2933 45.3444 10.144 44.0218 10.144C42.1018 10.144 41.1418 10.6773 41.1418 11.744C41.1418 12.256 41.3231 12.6827 41.6858 13.024C42.0484 13.3653 42.6671 13.632 43.5417 13.824C45.9951 14.3147 47.6698 14.976 48.5658 15.808C49.4831 16.64 49.9418 17.856 49.9418 19.456C49.9418 20.992 49.3658 22.1867 48.2138 23.04C47.0618 23.8933 45.3871 24.32 43.1898 24.32C41.7604 24.32 40.2991 24.1493 38.8058 23.808C38.3364 23.7013 37.9524 23.456 37.6538 23.072C37.3551 22.6667 37.2057 22.208 37.2057 21.696C37.2057 21.2907 37.3657 20.9813 37.6858 20.768C38.0271 20.5547 38.3898 20.5013 38.7738 20.608C40.1604 20.992 41.4724 21.184 42.7098 21.184C44.6511 21.184 45.6218 20.608 45.6218 19.456C45.6218 18.9013 45.4298 18.464 45.0458 18.144C44.6831 17.824 44.0111 17.536 43.0298 17.28ZM53.9753 11.104C53.5486 11.104 53.1859 10.9547 52.8873 10.656C52.5886 10.336 52.4393 9.96267 52.4393 9.536C52.4393 9.10933 52.5886 8.74667 52.8873 8.448C53.1859 8.14933 53.5486 8 53.9753 8H55.5113C55.7033 8 55.7993 7.904 55.7993 7.712V3.744C55.7993 3.25333 55.9699 2.82667 56.3113 2.464C56.6739 2.10133 57.1006 1.92 57.5913 1.92H58.2313C58.7219 1.92 59.1486 2.10133 59.5113 2.464C59.8739 2.82667 60.0553 3.25333 60.0553 3.744V7.712C60.0553 7.904 60.1513 8 60.3433 8H63.9913C64.4179 8 64.7806 8.14933 65.0793 8.448C65.3993 8.74667 65.5593 9.10933 65.5593 9.536C65.5593 9.96267 65.3993 10.336 65.0793 10.656C64.7806 10.9547 64.4179 11.104 63.9913 11.104H60.3433C60.1513 11.104 60.0553 11.1893 60.0553 11.36V17.824C60.0553 19.2107 60.2046 20.1067 60.5033 20.512C60.8019 20.9173 61.4206 21.12 62.3593 21.12C62.8713 21.12 63.2553 21.0987 63.5113 21.056C63.9379 21.0133 64.3113 21.1093 64.6313 21.344C64.9513 21.5787 65.1113 21.8987 65.1113 22.304C65.1113 22.7733 64.9513 23.2 64.6313 23.584C64.3326 23.9467 63.9593 24.1493 63.5113 24.192C62.5726 24.2773 61.8686 24.32 61.3993 24.32C59.3299 24.32 57.8793 23.8827 57.0473 23.008C56.2153 22.112 55.7993 20.5227 55.7993 18.24V11.36C55.7993 11.1893 55.7033 11.104 55.5113 11.104H53.9753ZM76.4608 10.016C75.3728 10.016 74.5301 10.3253 73.9328 10.944C73.3568 11.5413 72.9941 12.512 72.8448 13.856C72.8448 14.0267 72.9301 14.112 73.1008 14.112H79.3728C79.5434 14.112 79.6288 14.0267 79.6288 13.856C79.5434 11.296 78.4874 10.016 76.4608 10.016ZM77.2608 24.32C74.4661 24.32 72.3114 23.5947 70.7968 22.144C69.3034 20.672 68.5568 18.5173 68.5568 15.68C68.5568 12.864 69.2288 10.72 70.5728 9.248C71.9168 7.776 73.8581 7.04 76.3968 7.04C81.1328 7.04 83.5648 9.728 83.6928 15.104C83.7141 15.616 83.5328 16.0427 83.1488 16.384C82.7648 16.7253 82.3168 16.896 81.8048 16.896H73.0688C72.8768 16.896 72.8021 16.992 72.8448 17.184C72.9941 18.6133 73.4634 19.6587 74.2528 20.32C75.0634 20.96 76.2368 21.28 77.7728 21.28C78.7328 21.28 79.7994 21.12 80.9728 20.8C81.3568 20.6933 81.7088 20.7573 82.0288 20.992C82.3701 21.2267 82.5408 21.5467 82.5408 21.952C82.5408 22.4427 82.3914 22.88 82.0928 23.264C81.8154 23.6267 81.4421 23.8507 80.9728 23.936C79.7781 24.192 78.5408 24.32 77.2608 24.32ZM89.9295 24C89.4388 24 89.0122 23.8187 88.6495 23.456C88.2868 23.0933 88.1055 22.6667 88.1055 22.176V1.824C88.1055 1.33333 88.2868 0.906666 88.6495 0.543999C89.0122 0.181332 89.4388 -1.90735e-06 89.9295 -1.90735e-06H90.7615C91.2522 -1.90735e-06 91.6788 0.181332 92.0415 0.543999C92.4042 0.906666 92.5855 1.33333 92.5855 1.824V22.176C92.5855 22.6667 92.4042 23.0933 92.0415 23.456C91.6788 23.8187 91.2522 24 90.7615 24H89.9295ZM100.117 24C99.6263 24 99.1997 23.8187 98.837 23.456C98.4743 23.0933 98.293 22.6667 98.293 22.176V1.824C98.293 1.33333 98.4743 0.906666 98.837 0.543999C99.1997 0.181332 99.6263 -1.90735e-06 100.117 -1.90735e-06H100.949C101.44 -1.90735e-06 101.866 0.181332 102.229 0.543999C102.592 0.906666 102.773 1.33333 102.773 1.824V22.176C102.773 22.6667 102.592 23.0933 102.229 23.456C101.866 23.8187 101.44 24 100.949 24H100.117ZM114.93 10.016C113.842 10.016 112.999 10.3253 112.402 10.944C111.826 11.5413 111.463 12.512 111.314 13.856C111.314 14.0267 111.399 14.112 111.57 14.112H117.842C118.012 14.112 118.098 14.0267 118.098 13.856C118.012 11.296 116.956 10.016 114.93 10.016ZM115.73 24.32C112.935 24.32 110.78 23.5947 109.266 22.144C107.772 20.672 107.026 18.5173 107.026 15.68C107.026 12.864 107.698 10.72 109.042 9.248C110.386 7.776 112.327 7.04 114.866 7.04C119.602 7.04 122.034 9.728 122.162 15.104C122.183 15.616 122.002 16.0427 121.618 16.384C121.234 16.7253 120.786 16.896 120.274 16.896H111.538C111.346 16.896 111.271 16.992 111.314 17.184C111.463 18.6133 111.932 19.6587 112.722 20.32C113.532 20.96 114.706 21.28 116.242 21.28C117.202 21.28 118.268 21.12 119.442 20.8C119.826 20.6933 120.178 20.7573 120.498 20.992C120.839 21.2267 121.01 21.5467 121.01 21.952C121.01 22.4427 120.86 22.88 120.562 23.264C120.284 23.6267 119.911 23.8507 119.442 23.936C118.247 24.192 117.01 24.32 115.73 24.32Z" fill="#25355A"/>
<path d="M143.06 4.608L140.244 14.656C140.223 14.72 140.233 14.784 140.276 14.848C140.319 14.912 140.372 14.944 140.436 14.944H145.748C145.812 14.944 145.865 14.912 145.908 14.848C145.951 14.784 145.961 14.72 145.94 14.656L143.124 4.608C143.124 4.58667 143.113 4.576 143.092 4.576C143.071 4.576 143.06 4.58667 143.06 4.608ZM134.772 24C134.324 24 133.972 23.8187 133.716 23.456C133.46 23.0933 133.407 22.6987 133.556 22.272L140.18 2.368C140.372 1.856 140.681 1.44 141.108 1.12C141.556 0.799999 142.047 0.639999 142.58 0.639999H143.732C144.287 0.639999 144.777 0.799999 145.204 1.12C145.652 1.44 145.961 1.856 146.132 2.368L152.756 22.272C152.905 22.6987 152.852 23.0933 152.596 23.456C152.34 23.8187 151.988 24 151.54 24H150.388C149.876 24 149.396 23.84 148.948 23.52C148.521 23.1787 148.233 22.752 148.084 22.24L147.06 18.624C147.039 18.4533 146.921 18.368 146.708 18.368H139.476C139.284 18.368 139.167 18.4533 139.124 18.624L138.1 22.24C137.972 22.752 137.684 23.1787 137.236 23.52C136.809 23.84 136.329 24 135.796 24H134.772ZM158.398 24C157.908 24 157.481 23.8187 157.118 23.456C156.756 23.0933 156.574 22.6667 156.574 22.176V2.464C156.574 1.97333 156.756 1.54667 157.118 1.184C157.481 0.821332 157.908 0.639999 158.398 0.639999H159.678C160.169 0.639999 160.596 0.821332 160.958 1.184C161.321 1.54667 161.502 1.97333 161.502 2.464V22.176C161.502 22.6667 161.321 23.0933 160.958 23.456C160.596 23.8187 160.169 24 159.678 24H158.398Z" fill="url(#paint0_linear_24_21)"/>
<defs>
<linearGradient id="paint0_linear_24_21" x1="140" y1="1.5" x2="160" y2="24" gradientUnits="userSpaceOnUse">
<stop stop-color="#88DBFF"/>
<stop offset="0.31" stop-color="#B5A8F5"/>
<stop offset="0.705" stop-color="#D7ADC2"/>
<stop offset="1" stop-color="#F3B394"/>
</linearGradient>
</defs>
</svg>
